<?xml version="1.0" encoding="UTF-8"?>
<svg version="1.1" xmlns="http://www.w3.org/2000/svg" width="130" height="39">
<path d="M0 0 C0.33 5.61 0.66 11.22 1 17 C1.99 16.01 2.98 15.02 4 14 C4 12.68 4 11.36 4 10 C6.97 10 9.94 10 13 10 C11.66667905 13.99996286 9.5042173 14.83782337 6 17 C6.57555876 20.88502164 8.24384275 23.24384275 11 26 C12.65 26 14.3 26 16 26 C16 22.37 16 18.74 16 15 C15.34 14.67 14.68 14.34 14 14 C14 13.01 14 12.02 14 11 C17.465 10.505 17.465 10.505 21 10 C21 15.61 21 21.22 21 27 C22.65 26.67 24.3 26.34 26 26 C26.33 22.04 26.66 18.08 27 14 C26.01 14 25.02 14 24 14 C24.33 13.01 24.66 12.02 25 11 C30.75 10 30.75 10 33 10 C34.7015625 9.87625 34.7015625 9.87625 36.4375 9.75 C40 10 40 10 41.7109375 11.59375 C43.42245663 14.78858571 43.29557513 17.14749554 43.1875 20.75 C43.14689453 22.50570313 43.14689453 22.50570313 43.10546875 24.296875 C43.07066406 25.18890625 43.03585938 26.0809375 43 27 C43.66 27 44.32 27 45 27 C45 27.66 45 28.32 45 29 C42.03 29 39.06 29 36 29 C36 28.34 36 27.68 36 27 C36.66 27 37.32 27 38 27 C37.67 22.71 37.34 18.42 37 14 C35.35 14.33 33.7 14.66 32 15 C32 18.63 32 22.26 32 26 C32.66 26.33 33.32 26.66 34 27 C34 27.66 34 28.32 34 29 C29.77119589 29.14541967 25.54303587 29.23411527 21.3125 29.3125 C20.11431641 29.35439453 18.91613281 29.39628906 17.68164062 29.43945312 C7.76229504 29.57760557 7.76229504 29.57760557 4.73046875 26.66796875 C3 24 3 24 2 21 C1.34 21 0.68 21 0 21 C0.34444881 23.47266765 0.34444881 23.47266765 1 26 C1.66 26.33 2.32 26.66 3 27 C3 27.66 3 28.32 3 29 C0.03 29 -2.94 29 -6 29 C-6 28.34 -6 27.68 -6 27 C-5.34 27 -4.68 27 -4 27 C-4.13874615 23.22887069 -4.28721093 19.45818555 -4.4375 15.6875 C-4.47681641 14.61564453 -4.51613281 13.54378906 -4.55664062 12.43945312 C-4.59853516 11.41142578 -4.64042969 10.38339844 -4.68359375 9.32421875 C-4.73858032 7.9024231 -4.73858032 7.9024231 -4.79467773 6.4519043 C-4.91430187 3.863829 -4.91430187 3.863829 -6 1 C-3 0 -3 0 0 0 Z " fill="#080808" transform="translate(24,1)"/>
<path d="M0 0 C1.14077657 3.42232972 1.09815117 6.08673217 1.0625 9.6875 C1.05347656 10.86699219 1.04445313 12.04648437 1.03515625 13.26171875 C1.02355469 14.16535156 1.01195313 15.06898437 1 16 C2.98 15.67 4.96 15.34 7 15 C7 11.37 7 7.74 7 4 C6.34 3.67 5.68 3.34 5 3 C5 2.34 5 1.68 5 1 C11.06696699 0.22959149 16.88514973 -0.09706112 23 0 C23 0.99 23 1.98 23 3 C22.34 3 21.68 3 21 3 C22.32 5.64 23.64 8.28 25 11 C25.99 8.36 26.98 5.72 28 3 C27.34 3 26.68 3 26 3 C26 2.01 26 1.02 26 0 C28.64 0 31.28 0 34 0 C34 3 34 3 32.62329102 4.41601562 C32.08760498 4.93873047 31.55191895 5.46144531 31 6 C29.91042737 8.05221868 29.91042737 8.05221868 29.02734375 10.34375 C28.68509766 11.17777344 28.34285156 12.01179688 27.99023438 12.87109375 C27.64283203 13.73863281 27.29542969 14.60617188 26.9375 15.5 C26.24110776 17.21989717 25.54199659 18.93869656 24.83984375 20.65625 C24.38146118 21.79803711 24.38146118 21.79803711 23.91381836 22.96289062 C23 25 23 25 21 28 C17.875 28.1875 17.875 28.1875 15 28 C15 26.68 15 25.36 15 24 C16.65 23.67 18.3 23.34 20 23 C22.09011865 15.92575226 19.38262383 10.32620504 16 4 C15.34 3.67 14.68 3.34 14 3 C13.1276588 5.99480917 12.89170234 8.63575911 12.9375 11.75 C12.94652344 12.54921875 12.95554687 13.3484375 12.96484375 14.171875 C12.97644531 14.77515625 12.98804687 15.3784375 13 16 C13.99 16 14.98 16 16 16 C16 16.66 16 17.32 16 18 C9.50142141 19.7045452 4.72856486 20.34571297 -2 19 C-4.71882869 14.92175696 -4.42566777 11.42482708 -4.65625 6.6171875 C-4.82640625 5.32167969 -4.82640625 5.32167969 -5 4 C-5.66 3.67 -6.32 3.34 -7 3 C-7 2.34 -7 1.68 -7 1 C-4.50935112 0.31292445 -2.62113708 0 0 0 Z " fill="#070707" transform="translate(96,11)"/>
<path d="M0 0 C1.32 0 2.64 0 4 0 C3.67 1.65 3.34 3.3 3 5 C4.32 5.33 5.64 5.66 7 6 C6.34 7.32 5.68 8.64 5 10 C3.35 10 1.7 10 0 10 C-0.66 11.32 -1.32 12.64 -2 14 C-1.34 14.70125 -0.68 15.4025 0 16.125 C2 19 2 19 2.5625 22 C1.78940454 26.12317579 0.27035607 27.41745691 -3 30 C-5.8387401 30.36771245 -8.01820151 30.48630804 -10.8125 30.3125 C-11.50537109 30.28994141 -12.19824219 30.26738281 -12.91210938 30.24414062 C-14.60901573 30.18562661 -16.30479861 30.0959548 -18 30 C-17.67 29.01 -17.34 28.02 -17 27 C-16.85222064 25.30132812 -16.75252934 23.59822511 -16.68359375 21.89453125 C-16.64169922 20.91162109 -16.59980469 19.92871094 -16.55664062 18.91601562 C-16.51732422 17.89185547 -16.47800781 16.86769531 -16.4375 15.8125 C-16.39431641 14.77673828 -16.35113281 13.74097656 -16.30664062 12.67382812 C-16.20055634 10.1160181 -16.09849854 7.55811155 -16 5 C-16.99 4.67 -17.98 4.34 -19 4 C-18.67 3.34 -18.34 2.68 -18 2 C-15.68715544 2.14026283 -13.37472409 2.28735558 -11.0625 2.4375 C-9.13083984 2.55931641 -9.13083984 2.55931641 -7.16015625 2.68359375 C-4 3 -4 3 -3 4 C-2.5875 3.34 -2.175 2.68 -1.75 2 C-0.88375 1.01 -0.88375 1.01 0 0 Z M-11 5 C-11 7.97 -11 10.94 -11 14 C-9.35 13.67 -7.7 13.34 -6 13 C-4.99782936 9.41672247 -4.99782936 9.41672247 -6 6 C-8.52733235 5.34444881 -8.52733235 5.34444881 -11 5 Z M-11 17 C-11 20.3 -11 23.6 -11 27 C-8.08347826 27.16681109 -8.08347826 27.16681109 -5 27 C-4.34 26.34 -3.68 25.68 -3 25 C-3.32326553 21.40320934 -3.32326553 21.40320934 -4 18 C-6.31 17.67 -8.62 17.34 -11 17 Z " fill="#080808" transform="translate(88,0)"/>
<path d="M0 0 C0.66 0.33 1.32 0.66 2 1 C2 3.31 2 5.62 2 8 C1.34 8 0.68 8 0 8 C-1.625 5.5 -1.625 5.5 -3 3 C-4.65 3.33 -6.3 3.66 -8 4 C-8.11635105 6.29781554 -8.11635105 6.29781554 -7 9 C-5.06852026 10.73620926 -3.04908431 12.19672785 -0.91015625 13.66796875 C1 15 1 15 3 17 C3.42149456 20.79345105 3.56666117 23.10278648 1.5 26.375 C-1.91441002 28.59436651 -4.95213653 29.10420243 -9 29 C-12 28.0625 -12 28.0625 -14 27 C-14 24.36 -14 21.72 -14 19 C-13.34 19 -12.68 19 -12 19 C-11.34 20.65 -10.68 22.3 -10 24 C-7.69 24.33 -5.38 24.66 -3 25 C-2.67 23.35 -2.34 21.7 -2 20 C-2.71027344 19.43410156 -3.42054687 18.86820313 -4.15234375 18.28515625 C-5.07144531 17.55167969 -5.99054687 16.81820313 -6.9375 16.0625 C-7.85402344 15.33160156 -8.77054688 14.60070312 -9.71484375 13.84765625 C-12 12 -12 12 -13 11 C-13.35345775 7.2533478 -13.50023653 4.84822716 -11.5625 1.5625 C-7.81954446 -0.71978996 -4.28454373 -0.50455052 0 0 Z " fill="#070707" transform="translate(14,2)"/>
<path d="M0 0 C1.98 0.495 1.98 0.495 4 1 C3.67 2.32 3.34 3.64 3 5 C1.68 4.67 0.36 4.34 -1 4 C-0.67 2.68 -0.34 1.36 0 0 Z " fill="#080808" transform="translate(41,5)"/>
</svg>
