<?xml version="1.0" encoding="UTF-8"?>
<svg version="1.1" xmlns="http://www.w3.org/2000/svg" width="130" height="39">
<path d="M0 0 C0.495 7.92 0.495 7.92 1 16 C1.99 15.34 2.98 14.68 4 14 C4 12.68 4 11.36 4 10 C6.64 10 9.28 10 12 10 C12 10.99 12 11.98 12 13 C9.5 15.1875 9.5 15.1875 7 17 C8.53009089 20.44270451 10.4931222 23.18925822 13 26 C13.99 26.33 14.98 26.66 16 27 C16.33 22.38 16.66 17.76 17 13 C16.34 13 15.68 13 15 13 C15 12.34 15 11.68 15 11 C15.99 10.34 16.98 9.68 18 9 C17.34 7.02 16.68 5.04 16 3 C19.7680734 1.96053148 23.07749916 2 27 2 C26.25 7.75 26.25 7.75 24 10 C23.85482256 12.9093558 23.81369204 15.719946 23.875 18.625 C23.88402344 19.42679688 23.89304688 20.22859375 23.90234375 21.0546875 C23.92593777 23.03658523 23.96180935 25.01832981 24 27 C24.66 27 25.32 27 26 27 C25.67 21.72 25.34 16.44 25 11 C30.18348624 8.9266055 30.18348624 8.9266055 34 10 C34.804375 9.79375 35.60875 9.5875 36.4375 9.375 C39 9 39 9 41.609375 10.02734375 C44 12 44 12 44.70703125 15.35546875 C44.75923828 17.25232422 44.75923828 17.25232422 44.8125 19.1875 C44.88404297 21.09595703 44.88404297 21.09595703 44.95703125 23.04296875 C44.97121094 24.01878906 44.98539062 24.99460937 45 26 C45.33 26 45.66 26 46 26 C46 19.07 46 12.14 46 5 C45.01 4.505 45.01 4.505 44 4 C44 3.01 44 2.02 44 1 C57.55263158 0.60526316 57.55263158 0.60526316 62 3 C64 5.25 64 5.25 65 8 C64.1875 11.3125 64.1875 11.3125 63 14 C63.99 14.99 64.98 15.98 66 17 C66 15.02 66 13.04 66 11 C68.64 10.67 71.28 10.34 74 10 C74 14.95 74 19.9 74 25 C75.32 24.67 76.64 24.34 78 24 C78 19.71 78 15.42 78 11 C81.56045177 9.81318274 84.43808337 9.90310168 88.1875 9.9375 C89.45980469 9.94652344 90.73210937 9.95554687 92.04296875 9.96484375 C93.50669922 9.98224609 93.50669922 9.98224609 95 10 C94.979375 11.11375 94.95875 12.2275 94.9375 13.375 C94.73619282 16.83215921 94.73619282 16.83215921 96 19 C96.66 17.02 97.32 15.04 98 13 C97.34 13 96.68 13 96 13 C96 12.01 96 11.02 96 10 C98.64 10 101.28 10 104 10 C104 10.99 104 11.98 104 13 C103.34 13 102.68 13 102 13 C101.84144531 13.58265625 101.68289062 14.1653125 101.51953125 14.765625 C96.17335058 33.55109961 96.17335058 33.55109961 91 37 C89.68 37 88.36 37 87 37 C87 35.35 87 33.7 87 32 C88.65 32 90.3 32 92 32 C91.45776686 25.76431889 89.44588437 20.75966319 87 15 C87 19.62 87 24.24 87 29 C84.33187741 29.38116037 81.67908874 29.71702981 79 30 C78.29488281 30.07992188 77.58976562 30.15984375 76.86328125 30.2421875 C72.71535154 30.51081533 71.24132544 30.20110453 68 27.5 C67.01 26.2625 67.01 26.2625 66 25 C65.278125 25.639375 64.55625 26.27875 63.8125 26.9375 C59.75161594 29.91548164 56.07291636 30.12950269 51.13671875 30.09765625 C49.80737305 30.09282227 49.80737305 30.09282227 48.45117188 30.08789062 C47.53916016 30.07951172 46.62714844 30.07113281 45.6875 30.0625 C44.75615234 30.05798828 43.82480469 30.05347656 42.86523438 30.04882812 C40.57675627 30.03709234 38.28841192 30.02067363 36 30 C36.16298584 29.39768555 36.32597168 28.79537109 36.49389648 28.17480469 C37.12018148 25.48356169 37.0953592 23.01017307 37.0625 20.25 C37.05347656 19.26515625 37.04445312 18.2803125 37.03515625 17.265625 C37.02355469 16.51796875 37.01195312 15.7703125 37 15 C36.01 15 35.02 15 34 15 C33.67 18.96 33.34 22.92 33 27 C33.66 27 34.32 27 35 27 C35 27.66 35 28.32 35 29 C30.66563585 31.16718207 25.01077274 30.40765743 20.25 30.5 C19.06921875 30.55414062 17.8884375 30.60828125 16.671875 30.6640625 C8.08646403 30.79941808 8.08646403 30.79941808 4.83398438 28.40625 C3.34462384 26.67012116 2.11511542 24.99357428 1 23 C1.33 25.31 1.66 27.62 2 30 C-1.3 30 -4.6 30 -8 30 C-8 29.01 -8 28.02 -8 27 C-7.34 27 -6.68 27 -6 27 C-6 19.41 -6 11.82 -6 4 C-6.66 4 -7.32 4 -8 4 C-8 5.98 -8 7.96 -8 10 C-10.89855326 9.58592096 -11.91493313 9.08772521 -14 6.9375 C-16.01472954 4.53613652 -16.01472954 4.53613652 -20 5 C-18.68174109 9.23419031 -17.30837592 10.84300819 -13.5 13.0625 C-10.17407133 15.01162378 -8.31736685 16.30705358 -7 20 C-7.07844689 23.76545079 -7.56227234 25.48019841 -10 28.375 C-15.27738109 31.23358142 -20.32715043 30.41821239 -26 29 C-26 26.03 -26 23.06 -26 20 C-25.34 20 -24.68 20 -24 20 C-23.071875 21.2065625 -23.071875 21.2065625 -22.125 22.4375 C-20.26854441 25.08357906 -20.26854441 25.08357906 -17.875 25.875 C-15.90827637 26.16485464 -15.90827637 26.16485464 -14 25 C-14.34771011 22.17561789 -14.73331039 21.21345607 -16.99609375 19.40234375 C-17.80175781 18.91894531 -18.60742188 18.43554688 -19.4375 17.9375 C-22.55991097 16.04801535 -23.92957454 15.10563819 -26 12 C-26.60839155 8.00199836 -26.33251303 6.47798748 -24 3.125 C-20.14717009 0.39591215 -17.57484015 0.27134602 -13 1 C-10 2 -10 2 -8 3 C-8 2.34 -8 1.68 -8 1 C-5.10765685 0.17361624 -3.11257569 0 0 0 Z M53 5 C53 7.64 53 10.28 53 13 C55.75641416 12.50243908 55.75641416 12.50243908 58 11 C58.04063832 9.33382885 58.042721 7.66611905 58 6 C56.35 5.67 54.7 5.34 53 5 Z M53 16 C53 19.3 53 22.6 53 26 C54.65 26 56.3 26 58 26 C60.21896136 24.17528109 60.21896136 24.17528109 60.375 21.5625 C60.2433504 18.88250211 60.2433504 18.88250211 58.1875 17.1875 C55.97541303 15.76145407 55.97541303 15.76145407 53 16 Z " fill="#8E6841" transform="translate(26,1)"/>
<path d="M0 0 C13.55263158 -0.39473684 13.55263158 -0.39473684 18 2 C20 4.25 20 4.25 21 7 C20.1875 10.3125 20.1875 10.3125 19 13 C19.99 13.99 20.98 14.98 22 16 C22 14.02 22 12.04 22 10 C24.64 9.67 27.28 9.34 30 9 C30 13.95 30 18.9 30 24 C31.32 23.67 32.64 23.34 34 23 C34 18.71 34 14.42 34 10 C37.56045177 8.81318274 40.43808337 8.90310168 44.1875 8.9375 C45.45980469 8.94652344 46.73210937 8.95554687 48.04296875 8.96484375 C49.50669922 8.98224609 49.50669922 8.98224609 51 9 C50.979375 10.11375 50.95875 11.2275 50.9375 12.375 C50.73619282 15.83215921 50.73619282 15.83215921 52 18 C52.66 16.02 53.32 14.04 54 12 C53.34 12 52.68 12 52 12 C52 11.01 52 10.02 52 9 C54.64 9 57.28 9 60 9 C60 9.99 60 10.98 60 12 C59.34 12 58.68 12 58 12 C57.84144531 12.58265625 57.68289062 13.1653125 57.51953125 13.765625 C52.17335058 32.55109961 52.17335058 32.55109961 47 36 C45.68 36 44.36 36 43 36 C43 34.35 43 32.7 43 31 C44.65 31 46.3 31 48 31 C47.45776686 24.76431889 45.44588437 19.75966319 43 14 C43 18.62 43 23.24 43 28 C40.33187741 28.38116037 37.67908874 28.71702981 35 29 C33.94232422 29.11988281 33.94232422 29.11988281 32.86328125 29.2421875 C28.71535154 29.51081533 27.24132544 29.20110453 24 26.5 C23.34 25.675 22.68 24.85 22 24 C21.278125 24.639375 20.55625 25.27875 19.8125 25.9375 C15.75161594 28.91548164 12.07291636 29.12950269 7.13671875 29.09765625 C5.80737305 29.09282227 5.80737305 29.09282227 4.45117188 29.08789062 C3.53916016 29.07951172 2.62714844 29.07113281 1.6875 29.0625 C0.75615234 29.05798828 -0.17519531 29.05347656 -1.13476562 29.04882812 C-3.42324373 29.03709234 -5.71158808 29.02067363 -8 29 C-7.83918945 28.39623535 -7.67837891 27.7924707 -7.51269531 27.17041016 C-6.89025456 24.53541099 -6.79376429 22.08109178 -6.75 19.375 C-6.72421875 18.41335937 -6.6984375 17.45171875 -6.671875 16.4609375 C-6.78015625 15.64882813 -6.8884375 14.83671875 -7 14 C-7.99 13.34 -8.98 12.68 -10 12 C-7.525 12.495 -7.525 12.495 -5 13 C-5 17.62 -5 22.24 -5 27 C-3.68 27 -2.36 27 -1 27 C-1.14024219 24.52039864 -1.2869185 22.04147598 -1.4375 19.5625 C-1.47681641 18.85544922 -1.51613281 18.14839844 -1.55664062 17.41992188 C-1.47624438 13.91309581 -1.47624438 13.91309581 -3 11 C-5.32817964 10.63239269 -7.6618385 10.29758419 -10 10 C-9.01 9.34 -8.02 8.68 -7 8 C-1.59459459 9.40540541 -1.59459459 9.40540541 0 11 C0.23527773 13.34987262 0.41386417 15.70556039 0.5625 18.0625 C0.64628906 19.35285156 0.73007813 20.64320312 0.81640625 21.97265625 C0.87699219 22.97167969 0.93757813 23.97070312 1 25 C1.33 25 1.66 25 2 25 C2 18.07 2 11.14 2 4 C1.34 3.67 0.68 3.34 0 3 C0 2.01 0 1.02 0 0 Z M9 4 C9 6.64 9 9.28 9 12 C11.75641416 11.50243908 11.75641416 11.50243908 14 10 C14.04063832 8.33382885 14.042721 6.66611905 14 5 C12.35 4.67 10.7 4.34 9 4 Z M9 15 C9 18.3 9 21.6 9 25 C10.65 25 12.3 25 14 25 C16.21896136 23.17528109 16.21896136 23.17528109 16.375 20.5625 C16.2433504 17.88250211 16.2433504 17.88250211 14.1875 16.1875 C11.97541303 14.76145407 11.97541303 14.76145407 9 15 Z " fill="#906E47" transform="translate(70,2)"/>
<path d="M0 0 C1.27230469 0.00902344 2.54460937 0.01804687 3.85546875 0.02734375 C5.31919922 0.04474609 5.31919922 0.04474609 6.8125 0.0625 C6.791875 1.17625 6.77125 2.29 6.75 3.4375 C6.54869282 6.89465921 6.54869282 6.89465921 7.8125 9.0625 C8.4725 7.0825 9.1325 5.1025 9.8125 3.0625 C9.1525 3.0625 8.4925 3.0625 7.8125 3.0625 C7.8125 2.0725 7.8125 1.0825 7.8125 0.0625 C10.4525 0.0625 13.0925 0.0625 15.8125 0.0625 C15.8125 1.0525 15.8125 2.0425 15.8125 3.0625 C15.1525 3.0625 14.4925 3.0625 13.8125 3.0625 C13.57466797 3.93648437 13.57466797 3.93648437 13.33203125 4.828125 C7.98585058 23.61359961 7.98585058 23.61359961 2.8125 27.0625 C1.4925 27.0625 0.1725 27.0625 -1.1875 27.0625 C-1.1875 25.4125 -1.1875 23.7625 -1.1875 22.0625 C0.4625 22.0625 2.1125 22.0625 3.8125 22.0625 C3.27026686 15.82681889 1.25838437 10.82216319 -1.1875 5.0625 C-1.1875 9.6825 -1.1875 14.3025 -1.1875 19.0625 C-15.4620098 21.10171569 -15.4620098 21.10171569 -18.90625 19.02734375 C-20.88661204 15.99038611 -20.50225322 12.86956908 -20.375 9.375 C-20.36146484 8.67310547 -20.34792969 7.97121094 -20.33398438 7.24804688 C-20.29870182 5.51920171 -20.24489583 3.79075235 -20.1875 2.0625 C-18.5375 1.7325 -16.8875 1.4025 -15.1875 1.0625 C-15.1875 6.0125 -15.1875 10.9625 -15.1875 16.0625 C-13.2075 15.7325 -11.2275 15.4025 -9.1875 15.0625 C-8.8575 11.1025 -8.5275 7.1425 -8.1875 3.0625 C-8.8475 3.0625 -9.5075 3.0625 -10.1875 3.0625 C-10.1875 2.4025 -10.1875 1.7425 -10.1875 1.0625 C-6.62704823 -0.12431726 -3.74941663 -0.03439832 0 0 Z " fill="#9C7957" transform="translate(114.1875,10.9375)"/>
<path d="M0 0 C3 1 3 1 5 2 C5 1.34 5 0.68 5 0 C7.31 0 9.62 0 12 0 C10.68 0.33 9.36 0.66 8 1 C8 9.58 8 18.16 8 27 C9.65 26.67 11.3 26.34 13 26 C13 26.66 13 27.32 13 28 C9.04 28.495 9.04 28.495 5 29 C5 28.01 5 27.02 5 26 C5.66 26 6.32 26 7 26 C7 18.41 7 10.82 7 3 C6.34 3 5.68 3 5 3 C5 4.98 5 6.96 5 9 C2.10144674 8.58592096 1.08506687 8.08772521 -1 5.9375 C-3.01472954 3.53613652 -3.01472954 3.53613652 -7 4 C-5.68174109 8.23419031 -4.30837592 9.84300819 -0.5 12.0625 C2.82592867 14.01162378 4.68263315 15.30705358 6 19 C5.92155311 22.76545079 5.43772766 24.48019841 3 27.375 C-2.27738109 30.23358142 -7.32715043 29.41821239 -13 28 C-13 25.03 -13 22.06 -13 19 C-12.34 19 -11.68 19 -11 19 C-10.071875 20.2065625 -10.071875 20.2065625 -9.125 21.4375 C-7.26854441 24.08357906 -7.26854441 24.08357906 -4.875 24.875 C-2.90827637 25.16485464 -2.90827637 25.16485464 -1 24 C-1.34771011 21.17561789 -1.73331039 20.21345607 -3.99609375 18.40234375 C-4.80175781 17.91894531 -5.60742188 17.43554688 -6.4375 16.9375 C-9.55991097 15.04801535 -10.92957454 14.10563819 -13 11 C-13.60839155 7.00199836 -13.33251303 5.47798748 -11 2.125 C-7.14717009 -0.60408785 -4.57484015 -0.72865398 0 0 Z " fill="#9E7F5C" transform="translate(13,2)"/>
<path d="M0 0 C1.11375 0.2475 1.11375 0.2475 2.25 0.5 C5.18606431 1.03382988 7.13588733 0.73648612 10 0 C9.25 5.75 9.25 5.75 7 8 C6.72313935 10.03467434 6.72313935 10.03467434 6.8046875 12.3515625 C6.81113281 13.20234375 6.81757812 14.053125 6.82421875 14.9296875 C6.84097656 15.81914062 6.85773437 16.70859375 6.875 17.625 C6.88402344 18.5221875 6.89304687 19.419375 6.90234375 20.34375 C6.9259503 22.56276586 6.9588769 24.78125077 7 27 C4.69 27 2.38 27 0 27 C0 21.72 0 16.44 0 11 C-0.66 11 -1.32 11 -2 11 C-2 10.34 -2 9.68 -2 9 C-1.01 8.34 -0.02 7.68 1 7 C0.34 5.02 -0.32 3.04 -1 1 C-0.67 0.67 -0.34 0.34 0 0 Z " fill="#916D4B" transform="translate(43,3)"/>
<path d="M0 0 C1.33333333 0.33333333 2.66666667 0.66666667 4 1 C4.33 0.67 4.66 0.34 5 0 C8.4375 -0.1875 8.4375 -0.1875 12 0 C14 2 14 2 14.1953125 5.4765625 C14.18201493 6.85950968 14.15816232 8.24238654 14.125 9.625 C14.11597656 10.33140625 14.10695313 11.0378125 14.09765625 11.765625 C14.07407603 13.51056098 14.03820461 15.25532295 14 17 C12.68 17 11.36 17 10 17 C9.67 12.38 9.34 7.76 9 3 C7.02 3 5.04 3 3 3 C3 7.62 3 12.24 3 17 C1.68 17 0.36 17 -1 17 C-1.02684679 14.35409986 -1.04676357 11.70846904 -1.0625 9.0625 C-1.07087891 8.30775391 -1.07925781 7.55300781 -1.08789062 6.77539062 C-1.09652441 4.85005687 -1.05224333 2.92464419 -1 1 C-0.67 0.67 -0.34 0.34 0 0 Z " fill="#DFD3C4" transform="translate(55,12)"/>
<path d="M0 0 C2.64 0 5.28 0 8 0 C8 0.99 8 1.98 8 3 C7.34 3 6.68 3 6 3 C5.84144531 3.58265625 5.68289062 4.1653125 5.51953125 4.765625 C0.17335058 23.55109961 0.17335058 23.55109961 -5 27 C-6.32 27 -7.64 27 -9 27 C-9 25.35 -9 23.7 -9 22 C-7.35 22 -5.7 22 -4 22 C-4.55312735 17.97007218 -5.1558062 13.97977076 -6 10 C-3.47629223 12.29427979 -2.61737724 13.76524552 -1 17 C-1.33 13.7 -1.66 10.4 -2 7 C-1.34 7.66 -0.68 8.32 0 9 C0.66 7.02 1.32 5.04 2 3 C1.34 3 0.68 3 0 3 C0 2.01 0 1.02 0 0 Z " fill="#9C7E5D" transform="translate(122,11)"/>
<path d="M0 0 C3.96 0 7.92 0 12 0 C12 0.33 12 0.66 12 1 C9.03 1 6.06 1 3 1 C3.33 1.66 3.66 2.32 4 3 C4.09629649 4.71662123 4.13075026 6.43693118 4.1328125 8.15625 C4.13410156 9.17847656 4.13539062 10.20070313 4.13671875 11.25390625 C4.13285156 12.32511719 4.12898438 13.39632813 4.125 14.5 C4.12886719 15.57121094 4.13273437 16.64242188 4.13671875 17.74609375 C4.13542969 18.76832031 4.13414063 19.79054688 4.1328125 20.84375 C4.13168457 21.78412109 4.13055664 22.72449219 4.12939453 23.69335938 C4 26 4 26 3 28 C5.97 28 8.94 28 12 28 C12 28.33 12 28.66 12 29 C5.4 29 -1.2 29 -8 29 C-7.67 27.68 -7.34 26.36 -7 25 C-6.8605637 23.12833578 -6.78034942 21.25160554 -6.75 19.375 C-6.72421875 18.41335937 -6.6984375 17.45171875 -6.671875 16.4609375 C-6.78015625 15.64882813 -6.8884375 14.83671875 -7 14 C-7.99 13.34 -8.98 12.68 -10 12 C-7.525 12.495 -7.525 12.495 -5 13 C-5 17.62 -5 22.24 -5 27 C-3.68 27 -2.36 27 -1 27 C-1.14024219 24.52039864 -1.2869185 22.04147598 -1.4375 19.5625 C-1.47681641 18.85544922 -1.51613281 18.14839844 -1.55664062 17.41992188 C-1.47624438 13.91309581 -1.47624438 13.91309581 -3 11 C-5.32817964 10.63239269 -7.6618385 10.29758419 -10 10 C-9.01 9.34 -8.02 8.68 -7 8 C-1.59459459 9.40540541 -1.59459459 9.40540541 0 11 C0.23527773 13.34987262 0.41386417 15.70556039 0.5625 18.0625 C0.64628906 19.35285156 0.73007813 20.64320312 0.81640625 21.97265625 C0.87699219 22.97167969 0.93757813 23.97070312 1 25 C1.33 25 1.66 25 2 25 C2 18.07 2 11.14 2 4 C1.34 3.67 0.68 3.34 0 3 C0 2.01 0 1.02 0 0 Z " fill="#865F37" transform="translate(70,2)"/>
<path d="M0 0 C0.99 0.33 1.98 0.66 3 1 C2.67 1.33 2.34 1.66 2 2 C1.50408401 4.3829239 1.50408401 4.3829239 2 7 C4.14433351 9.09567955 4.14433351 9.09567955 6.9375 10.75 C7.85402344 11.34296875 8.77054688 11.9359375 9.71484375 12.546875 C10.84599609 13.26617188 10.84599609 13.26617188 12 14 C13 15 13 15 13.25 18.375 C13 22 13 22 11.5 23.9375 C11.005 24.288125 10.51 24.63875 10 25 C9.34 24.67 8.68 24.34 8 24 C8.99 20.535 8.99 20.535 10 17 C9.46375 16.731875 8.9275 16.46375 8.375 16.1875 C7.59125 15.795625 6.8075 15.40375 6 15 C4.96875 14.505 3.9375 14.01 2.875 13.5 C0 12 0 12 -2 10 C-2.265625 8.125 -2.265625 8.125 -2.25 6 C-2.25515625 5.29875 -2.2603125 4.5975 -2.265625 3.875 C-2 2 -2 2 0 0 Z " fill="#EBE3D9" transform="translate(4,4)"/>
<path d="M0 0 C1.32 0 2.64 0 4 0 C4 8.58 4 17.16 4 26 C2.68 26 1.36 26 0 26 C0 17.42 0 8.84 0 0 Z " fill="#ECE4DA" transform="translate(21,3)"/>
<path d="M0 0 C2.64 0 5.28 0 8 0 C8 0.99 8 1.98 8 3 C5.5 5.1875 5.5 5.1875 3 7 C3.28875 7.556875 3.5775 8.11375 3.875 8.6875 C5.04148202 11.0852686 6.02128992 13.52060113 7 16 C7.33 16.66 7.66 17.32 8 18 C5.875 18.4375 5.875 18.4375 3 18 C0.5641642 15.97199909 -1.48920412 13.7944044 -3 11 C-2.68054137 8.54618737 -1.8695214 6.6776411 -0.9375 4.375 C0.12238884 2.11550447 0.12238884 2.11550447 0 0 Z " fill="#B09576" transform="translate(30,11)"/>
<path d="M0 0 C1.32 0 2.64 0 4 0 C4 8.25 4 16.5 4 25 C2.35 25 0.7 25 -1 25 C-0.67 16.75 -0.34 8.5 0 0 Z " fill="#EDE4DA" transform="translate(74,4)"/>
<path d="M0 0 C2.31 0 4.62 0 7 0 C5.68 0.33 4.36 0.66 3 1 C3 9.58 3 18.16 3 27 C4.65 26.67 6.3 26.34 8 26 C8 26.66 8 27.32 8 28 C4.04 28.495 4.04 28.495 0 29 C0 28.01 0 27.02 0 26 C0.66 26 1.32 26 2 26 C2 18.41 2 10.82 2 3 C1.34 3 0.68 3 0 3 C0 4.98 0 6.96 0 9 C-2.35722722 8.82539058 -3.69705862 8.3003668 -5.37890625 6.6328125 C-9 2.32051282 -9 2.32051282 -9 1 C-2.25 0.875 -2.25 0.875 0 2 C0 1.34 0 0.68 0 0 Z " fill="#94714B" transform="translate(18,2)"/>
<path d="M0 0 C3.875 0.875 3.875 0.875 5 2 C5.04063832 3.66617115 5.042721 5.33388095 5 7 C3.02 7.99 3.02 7.99 1 9 C1 9.66 1 10.32 1 11 C1.61875 11.12375 2.2375 11.2475 2.875 11.375 C5 12 5 12 7 14 C7.56338028 19.29577465 7.56338028 19.29577465 5.5 21.875 C4.7575 22.431875 4.7575 22.431875 4 23 C3.01 22.67 2.02 22.34 1 22 C1.33 21.67 1.66 21.34 2 21 C2.52813349 15.85868816 2.52813349 15.85868816 0 11.5625 C-0.66 11.046875 -1.32 10.53125 -2 10 C-1.34 9.34 -0.68 8.68 0 8 C0.24212873 6.01871492 0.24212873 6.01871492 0.125 3.875 C0.063125 1.956875 0.063125 1.956875 0 0 Z " fill="#E6DDD2" transform="translate(84,5)"/>
<path d="M0 0 C0.03738281 1.05960938 0.07476562 2.11921875 0.11328125 3.2109375 C0.17893258 4.59899424 0.24538021 5.98701349 0.3125 7.375 C0.33505859 8.07367188 0.35761719 8.77234375 0.38085938 9.4921875 C0.46984296 11.77288941 0.46984296 11.77288941 1 15 C1.99 15.66 2.98 16.32 4 17 C1.125 17.125 1.125 17.125 -2 17 C-4.85793316 14.14206684 -4.40799941 11.85334416 -4.625 7.875 C-4.69976562 6.59367187 -4.77453125 5.31234375 -4.8515625 3.9921875 C-4.90054688 3.00476563 -4.94953125 2.01734375 -5 1 C-3 0 -3 0 0 0 Z " fill="#DDD1C3" transform="translate(99,12)"/>
<path d="M0 0 C1.98 0 3.96 0 6 0 C6.5321441 2.08047297 7.05031786 4.16452293 7.5625 6.25 C7.85253906 7.41015625 8.14257812 8.5703125 8.44140625 9.765625 C8.95179964 12.72090983 9.02996165 14.24434101 8 17 C6 15 6 15 5.0625 12.5625 C4.21422029 9.98499605 4.21422029 9.98499605 2.4375 8.625 C0.18589594 6.07970846 0.31030744 3.28925887 0 0 Z " fill="#CDBCA8" transform="translate(113,12)"/>
<path d="M0 0 C-1.6875 2.0625 -1.6875 2.0625 -4 4 C-6.6875 3.6875 -6.6875 3.6875 -9 3 C-10.43610274 4.22420033 -10.43610274 4.22420033 -10.375 7.875 C-10.40327456 10.03670584 -10.40327456 10.03670584 -10 12 C-7.89242627 13.89921719 -7.89242627 13.89921719 -5 15 C-1.6875 16.8125 -1.6875 16.8125 1 19 C1.375 22.25 1.375 22.25 1 25 C-0.32 25.33 -1.64 25.66 -3 26 C-2.34 25.34 -1.68 24.68 -1 24 C-0.98748268 21.98679167 -0.98748268 21.98679167 -2 20 C-4.00116698 18.32506075 -4.00116698 18.32506075 -6.4375 16.9375 C-9.55991097 15.04801535 -10.92957454 14.10563819 -13 11 C-13.60839155 7.00199836 -13.33251303 5.47798748 -11 2.125 C-6.96957293 -0.72988584 -4.84275759 -0.41040319 0 0 Z " fill="#94714B" transform="translate(13,2)"/>
<path d="M0 0 C0.33 0.99 0.66 1.98 1 3 C0.01 3.495 0.01 3.495 -1 4 C-1 3.34 -1 2.68 -1 2 C-1.99 2.33 -2.98 2.66 -4 3 C-4.33 8.28 -4.66 13.56 -5 19 C-3.68 19 -2.36 19 -1 19 C-1 14.38 -1 9.76 -1 5 C-0.34 5.33 0.32 5.66 1 6 C0.67 9.96 0.34 13.92 0 18 C0.66 18 1.32 18 2 18 C2 18.66 2 19.32 2 20 C-0.64 20 -3.28 20 -6 20 C-6 14.72 -6 9.44 -6 4 C-6.66 4 -7.32 4 -8 4 C-7.67 3.01 -7.34 2.02 -7 1 C-4.52260646 0.09162237 -2.66420516 0 0 0 Z " fill="#977550" transform="translate(59,10)"/>
<path d="M0 0 C2.64 0 5.28 0 8 0 C8 0.99 8 1.98 8 3 C7.34 3 6.68 3 6 3 C5.01 6.3 4.02 9.6 3 13 C2.34 12.34 1.68 11.68 1 11 C0.01 11 -0.98 11 -2 11 C-1.67 9.68 -1.34 8.36 -1 7 C-0.67 7.66 -0.34 8.32 0 9 C0.66 7.02 1.32 5.04 2 3 C1.34 3 0.68 3 0 3 C0 2.01 0 1.02 0 0 Z " fill="#906E4B" transform="translate(122,11)"/>
<path d="M0 0 C0.33 0 0.66 0 1 0 C1 5.28 1 10.56 1 16 C2.98 16 4.96 16 7 16 C7 16.33 7 16.66 7 17 C-1.58 17 -10.16 17 -19 17 C-19 16.67 -19 16.34 -19 16 C-17.02 16 -15.04 16 -13 16 C-13 15.34 -13 14.68 -13 14 C-11.68 14 -10.36 14 -9 14 C-9 14.66 -9 15.32 -9 16 C-6.69 16 -4.38 16 -2 16 C-2 15.34 -2 14.68 -2 14 C-1.34 14 -0.68 14 0 14 C0 9.38 0 4.76 0 0 Z " fill="#522912" transform="translate(52,14)"/>
<path d="M0 0 C1.32 0 2.64 0 4 0 C4.33 5.28 4.66 10.56 5 16 C3.35 16 1.7 16 0 16 C0 10.72 0 5.44 0 0 Z " fill="#F4EEE7" transform="translate(44,13)"/>
<path d="M0 0 C0.99 0 1.98 0 3 0 C3.33 5.28 3.66 10.56 4 16 C2.68 16 1.36 16 0 16 C0 10.72 0 5.44 0 0 Z " fill="#F4EEE7" transform="translate(107,13)"/>
<path d="M0 0 C0.99 0 1.98 0 3 0 C3.33 5.28 3.66 10.56 4 16 C2.68 16 1.36 16 0 16 C0 10.72 0 5.44 0 0 Z " fill="#F5EFE8" transform="translate(54,13)"/>
<path d="M0 0 C0.66 0 1.32 0 2 0 C3.43802182 1.5910643 4.80325335 3.2486015 6.125 4.9375 C6.84945312 5.85402344 7.57390625 6.77054688 8.3203125 7.71484375 C10 10 10 10 10 11 C7.875 11.4375 7.875 11.4375 5 11 C2.5641642 8.97199909 0.51079588 6.7944044 -1 4 C-0.6640625 1.765625 -0.6640625 1.765625 0 0 Z " fill="#ECE4DA" transform="translate(28,18)"/>
<path d="M0 0 C-0.33 1.98 -0.66 3.96 -1 6 C-3.31 6 -5.62 6 -8 6 C-8.33 4.35 -8.66 2.7 -9 1 C-5.846632 0.29925156 -3.27275026 0 0 0 Z " fill="#B39A7C" transform="translate(53,3)"/>
<path d="M0 0 C3.96 0 7.92 0 12 0 C12 0.33 12 0.66 12 1 C9.03 1 6.06 1 3 1 C3.33 1.66 3.66 2.32 4 3 C4.08449628 4.7404417 4.10723024 6.48409722 4.09765625 8.2265625 C4.09282227 9.7734375 4.09282227 9.7734375 4.08789062 11.3515625 C4.07951172 12.43179687 4.07113281 13.51203125 4.0625 14.625 C4.05798828 15.71296875 4.05347656 16.8009375 4.04882812 17.921875 C4.03701776 20.61463789 4.02054778 23.30729188 4 26 C3.67 26 3.34 26 3 26 C2.67 18.74 2.34 11.48 2 4 C1.34 3.67 0.68 3.34 0 3 C0 2.01 0 1.02 0 0 Z " fill="#9A7850" transform="translate(70,2)"/>
<path d="M0 0 C0.33 1.32 0.66 2.64 1 4 C-2 6 -2 6 -6 6 C-6 4.35 -6 2.7 -6 1 C-4.02 0.67 -2.04 0.34 0 0 Z " fill="#AA8F70" transform="translate(119,32)"/>
<path d="M0 0 C4 1 4 1 5 2 C5.04063832 3.66617115 5.042721 5.33388095 5 7 C3.02 7.99 3.02 7.99 1 9 C0.67 6.03 0.34 3.06 0 0 Z " fill="#EBE2D9" transform="translate(84,5)"/>
<path d="M0 0 C2.64 0 5.28 0 8 0 C8 0.99 8 1.98 8 3 C6.35 3.66 4.7 4.32 3 5 C3 4.34 3 3.68 3 3 C2.01 3 1.02 3 0 3 C0 2.01 0 1.02 0 0 Z " fill="#A78866" transform="translate(122,11)"/>
<path d="M0 0 C3 1 3 1 4.25 3.3125 C5.0275526 6.09873015 4.98726527 7.33438378 4 10 C1.7448078 7.7448078 1.02276532 5.9952413 0 3 C0 2.01 0 1.02 0 0 Z " fill="#F0E9E1" transform="translate(117,19)"/>
<path d="M0 0 C1.32 0 2.64 0 4 0 C4 2.97 4 5.94 4 9 C3.01 8.67 2.02 8.34 1 8 C0.67 5.36 0.34 2.72 0 0 Z " fill="#F3EEE7" transform="translate(94,13)"/>
<path d="M0 0 C2.33294775 -0.04241723 4.66702567 -0.04092937 7 0 C8 1 8 1 8.0625 3.5625 C8.041875 4.366875 8.02125 5.17125 8 6 C7.34 6 6.68 6 6 6 C5.34 5.01 4.68 4.02 4 3 C1.94996045 1.80767387 1.94996045 1.80767387 0 1 C0 0.67 0 0.34 0 0 Z " fill="#C0AB93" transform="translate(9,3)"/>
<path d="M0 0 C-1.6875 2.0625 -1.6875 2.0625 -4 4 C-6.5625 3.625 -6.5625 3.625 -9 3 C-9.99 3.66 -10.98 4.32 -12 5 C-9.28085049 -1.02097391 -6.0998139 -0.0983841 0 0 Z " fill="#876039" transform="translate(13,2)"/>
<path d="M0 0 C2.64 0 5.28 0 8 0 C8 0.99 8 1.98 8 3 C6.02 3.99 6.02 3.99 4 5 C4 4.34 4 3.68 4 3 C4.66 3 5.32 3 6 3 C6 2.34 6 1.68 6 1 C4.68 1 3.36 1 2 1 C2 2.32 2 3.64 2 5 C1.34 4.67 0.68 4.34 0 4 C0 2.68 0 1.36 0 0 Z " fill="#8F683D" transform="translate(30,11)"/>
<path d="M0 0 C1.32 0 2.64 0 4 0 C4 0.66 4 1.32 4 2 C5.98 2 7.96 2 10 2 C10 2.33 10 2.66 10 3 C4.72 3 -0.56 3 -6 3 C-6 2.67 -6 2.34 -6 2 C-4.02 2 -2.04 2 0 2 C0 1.34 0 0.68 0 0 Z " fill="#6E3F21" transform="translate(39,28)"/>
<path d="M0 0 C3.96 0 7.92 0 12 0 C12 0.33 12 0.66 12 1 C9.03 1 6.06 1 3 1 C2.67 1.99 2.34 2.98 2 4 C1.34 3.67 0.68 3.34 0 3 C0 2.01 0 1.02 0 0 Z " fill="#74451D" transform="translate(70,2)"/>
</svg>
